<?xml version="1.0" encoding="UTF-8"?>
<svg xmlns="http://www.w3.org/2000/svg" xmlns:xlink="http://www.w3.org/1999/xlink" width="553pt" height="218pt" viewBox="0 0 553 218">
<path fill-rule="nonzero" fill="rgb(100%, 89.01825%, 0%)" fill-opacity="1" d="M 0 0 L 217.4375 0 L 217.4375 218.054688 L 0 218.054688 Z M 0 0 "/>
<path fill-rule="nonzero" fill="rgb(0%, 0%, 0%)" fill-opacity="1" d="M 201.128906 40.886719 L 81.542969 40.886719 L 91.375 60.605469 C 93.671875 65.226562 98.382812 68.140625 103.53125 68.140625 L 201.136719 68.140625 C 202.636719 68.140625 203.855469 66.921875 203.855469 65.417969 L 203.855469 43.609375 C 203.855469 42.105469 202.636719 40.886719 201.136719 40.886719 Z M 201.128906 40.886719 "/>
<path fill-rule="nonzero" fill="rgb(0%, 0%, 0%)" fill-opacity="1" d="M 16.308594 40.886719 L 81.542969 40.886719 L 71.710938 21.167969 C 69.410156 16.546875 64.699219 13.632812 59.550781 13.632812 L 16.308594 13.632812 C 14.808594 13.632812 13.59375 14.851562 13.59375 16.355469 L 13.59375 38.160156 C 13.59375 39.667969 14.808594 40.886719 16.308594 40.886719 Z M 16.308594 40.886719 "/>
<path fill-rule="nonzero" fill="rgb(0%, 0%, 0%)" fill-opacity="1" d="M 201.128906 177.167969 L 135.898438 177.167969 L 145.726562 196.886719 C 148.027344 201.507812 152.738281 204.421875 157.886719 204.421875 L 201.128906 204.421875 C 202.628906 204.421875 203.84375 203.203125 203.84375 201.699219 L 203.84375 179.894531 C 203.84375 178.386719 202.628906 177.167969 201.128906 177.167969 Z M 201.128906 177.167969 "/>
<path fill-rule="nonzero" fill="rgb(0%, 0%, 0%)" fill-opacity="1" d="M 16.308594 177.167969 L 135.898438 177.167969 L 126.066406 157.449219 C 123.765625 152.828125 119.054688 149.914062 113.90625 149.914062 L 16.300781 149.914062 C 14.800781 149.914062 13.582031 151.132812 13.582031 152.640625 L 13.582031 174.445312 C 13.582031 175.949219 14.800781 177.167969 16.300781 177.167969 Z M 16.308594 177.167969 "/>
<path fill-rule="nonzero" fill="rgb(0%, 0%, 0%)" fill-opacity="1" d="M 201.128906 109.027344 L 108.71875 109.027344 L 118.550781 89.308594 C 120.851562 84.6875 125.5625 81.773438 130.710938 81.773438 L 201.128906 81.773438 C 202.628906 81.773438 203.84375 82.992188 203.84375 84.496094 L 203.84375 106.304688 C 203.84375 107.808594 202.628906 109.027344 201.128906 109.027344 Z M 201.128906 109.027344 "/>
<path fill-rule="nonzero" fill="rgb(0%, 0%, 0%)" fill-opacity="1" d="M 16.308594 109.027344 L 108.71875 109.027344 L 98.886719 128.746094 C 96.589844 133.367188 91.875 136.28125 86.726562 136.28125 L 16.308594 136.28125 C 14.808594 136.28125 13.59375 135.0625 13.59375 133.558594 L 13.59375 111.753906 C 13.59375 110.246094 14.808594 109.027344 16.308594 109.027344 Z M 16.308594 109.027344 "/>
<path fill-rule="nonzero" fill="rgb(43.920898%, 44.313049%, 45.097351%)" fill-opacity="1" d="M 259.113281 187.046875 L 263.339844 187.046875 L 263.339844 218.054688 L 259.113281 218.054688 Z M 259.113281 187.046875 "/>
<path fill-rule="nonzero" fill="rgb(43.920898%, 44.313049%, 45.097351%)" fill-opacity="1" d="M 294.675781 218.054688 L 289.785156 218.054688 L 276.800781 194.382812 L 276.800781 218.054688 L 272.628906 218.054688 L 272.628906 187.046875 L 277.625 187.046875 L 290.507812 210.976562 L 290.507812 187.046875 L 294.675781 187.046875 Z M 294.675781 218.054688 "/>
<path fill-rule="nonzero" fill="rgb(43.920898%, 44.313049%, 45.097351%)" fill-opacity="1" d="M 322.917969 191.078125 L 308.230469 191.078125 L 308.230469 200.535156 L 322.148438 200.535156 L 322.148438 204.566406 L 308.230469 204.566406 L 308.230469 218.054688 L 304.003906 218.054688 L 304.003906 187.046875 L 322.917969 187.046875 Z M 322.917969 191.078125 "/>
<path fill-rule="nonzero" fill="rgb(43.920898%, 44.313049%, 45.097351%)" fill-opacity="1" d="M 354.140625 211.082031 C 354.140625 212.148438 353.886719 213.0625 353.371094 213.824219 C 353.058594 214.3125 352.5 214.960938 351.671875 215.769531 C 350.847656 216.578125 350.179688 217.140625 349.660156 217.445312 C 348.632812 218.035156 347.636719 218.320312 346.667969 218.320312 L 338.527344 218.320312 C 337.59375 218.320312 336.617188 218.027344 335.589844 217.445312 C 335.078125 217.132812 334.394531 216.578125 333.558594 215.769531 C 332.710938 214.960938 332.140625 214.3125 331.828125 213.824219 C 331.34375 213.140625 331.105469 212.226562 331.105469 211.082031 L 331.105469 194.078125 C 331.105469 192.945312 331.34375 192.03125 331.828125 191.335938 C 332.140625 190.847656 332.710938 190.199219 333.558594 189.371094 C 334.402344 188.542969 335.078125 187.980469 335.589844 187.667969 C 336.617188 187.085938 337.605469 186.789062 338.527344 186.789062 L 346.667969 186.789062 C 347.625 186.789062 348.625 187.085938 349.660156 187.667969 C 350.144531 187.941406 350.789062 188.503906 351.617188 189.34375 C 352.441406 190.191406 353.019531 190.847656 353.363281 191.335938 C 353.875 192.097656 354.132812 193 354.132812 194.078125 L 354.132812 211.082031 Z M 349.914062 211.035156 L 349.914062 194.183594 C 349.914062 194.011719 349.878906 193.859375 349.8125 193.714844 C 349.535156 193.230469 349.089844 192.695312 348.472656 192.117188 C 347.855469 191.535156 347.351562 191.132812 346.980469 190.925781 C 346.835938 190.859375 346.683594 190.820312 346.515625 190.820312 L 338.78125 190.820312 C 338.609375 190.820312 338.457031 190.859375 338.316406 190.925781 C 337.832031 191.164062 337.214844 191.667969 336.464844 192.421875 C 335.714844 193.171875 335.332031 193.761719 335.332031 194.171875 L 335.332031 211.023438 C 335.332031 211.367188 335.722656 211.929688 336.492188 212.703125 C 337.261719 213.472656 337.878906 213.96875 338.324219 214.179688 C 338.457031 214.246094 338.621094 214.28125 338.792969 214.28125 L 346.523438 214.28125 C 346.695312 214.28125 346.847656 214.246094 346.988281 214.179688 C 347.472656 213.941406 348.082031 213.453125 348.824219 212.730469 C 349.5625 212.007812 349.933594 211.433594 349.933594 211.023438 Z M 349.914062 211.035156 "/>
<path fill-rule="nonzero" fill="rgb(43.920898%, 44.313049%, 45.097351%)" fill-opacity="1" d="M 386.191406 218.054688 L 381.605469 218.054688 L 374.335938 205.136719 L 367.222656 205.136719 L 367.222656 218.054688 L 362.996094 218.054688 L 362.996094 187.046875 L 377.53125 187.046875 C 378.832031 187.046875 379.988281 187.410156 380.976562 188.132812 C 381.359375 188.410156 381.851562 188.859375 382.46875 189.476562 C 383.085938 190.097656 383.496094 190.5625 383.703125 190.867188 C 384.285156 191.761719 384.578125 192.746094 384.578125 193.8125 L 384.578125 198.460938 C 384.578125 199.488281 384.285156 200.460938 383.703125 201.355469 C 383.496094 201.671875 383.085938 202.128906 382.46875 202.746094 C 381.851562 203.367188 381.347656 203.8125 380.976562 204.089844 C 380.21875 204.640625 379.449219 204.949219 378.660156 205.023438 L 386.183594 218.046875 Z M 380.371094 198.363281 L 380.371094 193.914062 C 380.371094 193.574219 380.351562 193.382812 380.320312 193.34375 C 380.113281 193 379.722656 192.542969 379.136719 191.972656 C 378.546875 191.402344 378.109375 191.105469 377.796875 191.066406 L 367.230469 191.066406 L 367.230469 201.089844 L 377.492188 201.089844 C 377.898438 201.089844 378.421875 200.832031 379.058594 200.316406 C 379.695312 199.804688 380.113281 199.335938 380.320312 198.925781 C 380.359375 198.859375 380.371094 198.667969 380.371094 198.355469 Z M 380.371094 198.363281 "/>
<path fill-rule="nonzero" fill="rgb(43.920898%, 44.313049%, 45.097351%)" fill-opacity="1" d="M 421.550781 218.054688 L 417.425781 218.054688 L 417.425781 193.402344 L 409.332031 210.042969 L 406.550781 210.042969 L 398.5625 193.402344 L 398.5625 218.054688 L 394.390625 218.054688 L 394.390625 187.046875 L 399.75 187.046875 L 407.992188 203.945312 L 416.285156 187.046875 L 421.539062 187.046875 L 421.539062 218.054688 Z M 421.550781 218.054688 "/>
<path fill-rule="nonzero" fill="rgb(43.920898%, 44.313049%, 45.097351%)" fill-opacity="1" d="M 454.53125 218.054688 L 450 218.054688 L 447.679688 211.128906 L 434.277344 211.128906 L 431.902344 218.054688 L 427.417969 218.054688 L 438.191406 187.046875 L 443.757812 187.046875 Z M 446.332031 207.15625 L 440.976562 191.390625 L 435.617188 207.15625 Z M 446.332031 207.15625 "/>
<path fill-rule="nonzero" fill="rgb(43.920898%, 44.313049%, 45.097351%)" fill-opacity="1" d="M 477.871094 191.078125 L 469.054688 191.078125 L 469.054688 218.054688 L 464.828125 218.054688 L 464.828125 191.078125 L 456.011719 191.078125 L 456.011719 187.046875 L 477.859375 187.046875 L 477.859375 191.078125 Z M 477.871094 191.078125 "/>
<path fill-rule="nonzero" fill="rgb(43.920898%, 44.313049%, 45.097351%)" fill-opacity="1" d="M 484.929688 187.046875 L 489.15625 187.046875 L 489.15625 218.054688 L 484.929688 218.054688 Z M 484.929688 187.046875 "/>
<path fill-rule="nonzero" fill="rgb(43.920898%, 44.313049%, 45.097351%)" fill-opacity="1" d="M 503.070312 200.59375 L 515.125 187.058594 L 520.691406 187.058594 L 506.625 202.554688 L 520.742188 218.066406 L 515.175781 218.066406 L 503.0625 204.574219 L 502.597656 204.574219 L 502.597656 218.066406 L 498.371094 218.066406 L 498.371094 187.058594 L 502.597656 187.058594 L 502.597656 200.59375 Z M 503.070312 200.59375 "/>
<path fill-rule="nonzero" fill="rgb(0%, 0%, 0%)" fill-opacity="1" d="M 259.398438 0 L 280.113281 0 L 280.113281 152.039062 L 259.398438 152.039062 Z M 259.398438 0 "/>
<path fill-rule="nonzero" fill="rgb(0%, 0%, 0%)" fill-opacity="1" d="M 424.132812 152.039062 L 400.128906 152.039062 L 336.453125 35.980469 L 336.453125 152.039062 L 315.984375 152.039062 L 315.984375 0 L 340.492188 0 L 403.660156 117.324219 L 403.660156 0 L 424.132812 0 Z M 424.132812 152.039062 "/>
<path fill-rule="nonzero" fill="rgb(0%, 0%, 0%)" fill-opacity="1" d="M 553 19.765625 L 480.984375 19.765625 L 480.984375 66.140625 L 549.210938 66.140625 L 549.210938 85.90625 L 480.984375 85.90625 L 480.984375 152.046875 L 460.269531 152.046875 L 460.269531 0 L 553 0 Z M 553 19.765625 "/>
</svg>
